<svg width="48" height="48" viewBox="0 0 48 48" fill="none" xmlns="http://www.w3.org/2000/svg" role="img" aria-label="LearnForge">
  <defs>
    <linearGradient id="lfTile" x1="0" y1="0" x2="1" y2="1">
      <stop offset="0" stop-color="hsl(224 85% 56%)"/>
      <stop offset="1" stop-color="hsl(224 85% 44%)"/>
    </linearGradient>
  </defs>
  <rect width="48" height="48" rx="12" fill="url(#lfTile)"/>
  <rect x="0.75" y="0.75" width="46.5" height="46.5" rx="11.25" fill="none" stroke="#ffffff" stroke-opacity="0.12" stroke-width="1.5"/>
  <path d="M37.5 11.5l0.7 2.1 2.1 0.7-2.1 0.7-0.7 2.1-0.7-2.1-2.1-0.7 2.1-0.7z" fill="hsl(38 92% 55%)"/>
  <path d="M24 11l14 6-14 6-14-6z" fill="#ffffff"/>
  <circle cx="24" cy="17" r="1.5" fill="hsl(224 85% 44%)"/>
  <path d="M15 20v6.4C15 26.4 18.4 30 24 30s9-3.6 9-3.6V20" fill="none" stroke="#ffffff" stroke-width="2.6" stroke-linecap="round" stroke-linejoin="round"/>
  <path d="M38 17.5v8" stroke="hsl(38 92% 55%)" stroke-width="2.2" stroke-linecap="round"/>
  <circle cx="38" cy="27.5" r="2.1" fill="hsl(38 92% 55%)"/>
</svg>
